<svg width="218" height="70" viewBox="0 0 218 70" fill="none" xmlns="http://www.w3.org/2000/svg">
<path d="M15.0278 14.8483C18.1681 13.526 22.1594 12.7509 24.4483 12.6998C24.9364 11.9615 32.1187 2.55822 44.4263 6.74223C59.1339 11.7416 68.3443 24.6082 69.1707 25.8279C65.4554 12.7087 56.4157 5.01142 46.2305 1.43249C35.9828 -2.16852 24.3699 0.566323 15.0278 14.8483Z" fill="#00ADFF"/>
<path d="M42.9294 8.65332C47.2267 13.7768 48.9188 18.8797 48.9188 25.846C48.9188 33.5981 44.9165 40.5623 38.5918 45.308C40.4299 45.8676 42.3549 46.1662 44.3384 46.1662C44.8797 46.1662 45.4153 46.1359 45.9474 46.0923C51.2133 40.6299 54.3927 33.5657 54.3927 25.846C54.3927 21.0181 53.6722 17.2473 51.8543 12.9503C48.7586 10.7852 46.8961 9.81006 42.9294 8.65332Z" fill="#00ADFF"/>
<path d="M54.9684 55.1495C51.8281 56.4718 47.8368 57.2469 45.5479 57.298C45.0595 58.0366 37.8775 67.4398 25.5696 63.2559C10.8623 58.2562 1.65181 45.3896 0.825439 44.1699C4.54064 57.2891 13.5805 64.9866 23.7654 68.5654C34.0131 72.1665 45.6263 69.4316 54.9684 55.1495Z" fill="#00ADFF"/>
<path d="M27.0661 61.3449C22.7691 56.2214 21.0767 51.1185 21.0767 44.1519C21.0767 36.4001 25.0793 29.4359 31.4037 24.6902C29.5656 24.1306 27.6406 23.832 25.6574 23.832C25.1158 23.832 24.5805 23.8623 24.0484 23.9059C18.7825 29.368 15.6028 36.4325 15.6028 44.1519C15.6028 48.9798 16.3233 52.7506 18.1415 57.0476C21.2369 59.2127 23.0997 60.1878 27.0661 61.3449Z" fill="#00ADFF"/>
<path d="M55.1471 15.0293C56.4694 18.1695 57.2445 22.1609 57.2955 24.4497C58.0342 24.9379 67.4374 32.1202 63.2535 44.4277C58.2538 59.1354 45.3871 68.3457 44.1675 69.1722C57.2869 65.4568 64.9841 56.4172 68.563 46.2323C72.1641 35.9842 69.4292 24.3714 55.1471 15.0293Z" fill="#00ADFF"/>
<path d="M61.3434 42.9314C56.22 47.2284 51.1173 48.9208 44.1507 48.9208C36.399 48.9208 29.4345 44.9182 24.6888 38.5938C24.1294 40.4318 23.8306 42.3569 23.8306 44.3401C23.8306 44.8817 23.8608 45.417 23.9045 45.9494C29.3668 51.215 36.4313 54.3947 44.1507 54.3947C48.9786 54.3947 52.7495 53.6741 57.0464 51.8562C59.2116 48.7605 60.1867 46.8981 61.3434 42.9314Z" fill="#00ADFF"/>
<path d="M14.8483 54.9679C13.5262 51.8279 12.7511 47.8363 12.6998 45.5475C11.9615 45.0593 2.55824 37.8773 6.74216 25.5694C11.7419 10.8621 24.6085 1.65159 25.8281 0.825195C12.7087 4.5404 5.01141 13.5803 1.43248 23.7652C-2.1685 34.013 0.566312 45.6261 14.8483 54.9679Z" fill="#00ADFF"/>
<path d="M8.6521 27.0668C13.7755 22.7698 18.8785 21.0774 25.8451 21.0774C33.5969 21.0774 40.5611 25.08 45.3067 31.4044C45.8664 29.5663 46.165 27.6413 46.165 25.6581C46.165 25.1165 46.1347 24.5812 46.0911 24.0491C40.6287 18.7832 33.5645 15.6035 25.8451 15.6035C21.0172 15.6035 17.2461 16.324 12.9491 18.1422C10.784 21.2377 9.80914 23.1004 8.6521 27.0668Z" fill="#00ADFF"/>
<path d="M173.914 28.6929H165.283V28.0583L167.663 27.3601V16.9833L165.537 16.6025V15.9995C166.996 15.714 168.647 14.8256 169.567 13.3975H170.202V16.9514H170.233C170.773 16.1583 172.296 14.3494 174.168 14.3494C175.342 14.3494 175.914 14.9525 175.914 15.7456C175.914 16.6341 175.152 17.3641 174.39 17.3957C173.375 16.9514 172.931 16.5391 172.232 16.3168C171.344 16.3168 170.392 17.5861 170.233 18.2845V27.3601L173.914 28.0583V28.6929Z" fill="#0A1B29"/>
<path d="M158.349 29.1041C154.921 29.1041 151.812 26.5656 151.812 21.964C151.812 17.3311 154.763 14.3164 158.412 14.3164C159.999 14.3164 161.109 14.7607 161.966 15.4906C163.267 16.6011 163.68 18.2831 164.092 18.9496L163.87 19.5208L154.445 19.4573C154.382 19.7427 154.35 20.3139 154.35 20.7582C154.35 24.0267 156.064 27.2953 159.808 27.2953C161.776 27.2953 163.108 26.3433 163.87 25.7086L164.219 26.2482C163.172 27.3271 161.109 29.1041 158.349 29.1041ZM154.572 18.6957C156.476 18.6323 158.412 18.6004 160.316 18.5053C160.919 18.4735 161.141 18.4416 161.141 17.9657C161.141 16.7599 160.379 15.1414 158.222 15.1414C156.095 15.1414 154.921 16.9503 154.572 18.6957Z" fill="#0A1B29"/>
<path d="M145.637 29.0419C143.51 29.0419 142.178 27.9946 142.178 26.1542V25.1703C142.178 22.3779 142.273 18.2209 142.336 16.4436L140.528 16.412V15.8089C142.336 15.3012 143.637 14.0004 144.367 12.6357H144.907L144.843 14.9204C146.525 14.9204 148.207 14.8889 149.889 14.8889V16.0628C149.889 16.2851 149.794 16.412 149.603 16.4436H144.843C144.843 16.6024 144.843 16.8878 144.843 17.2052C144.875 18.6651 144.78 21.4575 144.78 23.4568V25.3607C144.78 26.7888 145.51 27.582 147.128 27.582C148.461 27.582 149.381 27.0427 149.603 26.9158L149.857 27.455C149.381 27.9312 147.826 29.0419 145.637 29.0419Z" fill="#0A1B29"/>
<path d="M130.471 28.6916H122.791V28.057L125.33 27.4223V16.8551L123.204 16.4743V15.8713C124.949 15.4586 126.472 14.5701 127.361 13.6182H127.9V16.6963H127.932C128.821 15.649 130.534 14.2528 133.009 14.2528C135.516 14.2528 137.166 15.649 137.166 18.4417V27.4223L139.61 28.057V28.6916H132.026V28.057L134.564 27.4223V19.0445C134.564 17.331 133.549 15.9663 131.486 15.9663C129.868 15.9663 128.662 16.7282 127.932 17.5532V27.4223L130.471 28.057V28.6916Z" fill="#0A1B29"/>
<path d="M115.84 29.1041C112.413 29.1041 109.303 26.5656 109.303 21.964C109.303 17.3311 112.254 14.3164 115.903 14.3164C117.49 14.3164 118.601 14.7607 119.458 15.4906C120.759 16.6011 121.171 18.2831 121.584 18.9496L121.362 19.5208L111.937 19.4573C111.873 19.7427 111.842 20.3139 111.842 20.7582C111.842 24.0267 113.555 27.2953 117.3 27.2953C119.267 27.2953 120.6 26.3433 121.362 25.7086L121.711 26.2482C120.664 27.3271 118.601 29.1041 115.84 29.1041ZM112.064 18.6957C113.968 18.6323 115.903 18.6004 117.808 18.5053C118.41 18.4735 118.633 18.4416 118.633 17.9657C118.633 16.7599 117.871 15.1414 115.713 15.1414C113.587 15.1414 112.413 16.9503 112.064 18.6957Z" fill="#0A1B29"/>
<path d="M98.8118 29.074C91.4496 29.074 86.658 24.7262 86.658 18.0306C86.658 11.4301 91.64 6.86035 99.0337 6.86035C101.985 6.86035 104.397 7.39995 105.698 7.90766L105.825 12.8897H105.127C104.524 10.3193 103.953 7.81261 98.9068 7.81261C93.7343 7.81261 90.2438 11.4619 90.2438 17.5864C90.2438 24.0916 94.147 28.1852 99.256 28.1852C103.921 28.1852 104.905 25.2658 105.73 22.7588L106.46 22.8223L105.571 27.8044C104.238 28.439 101.763 29.074 98.8118 29.074Z" fill="#0A1B29"/>
<path d="M197.465 68.4971C196.386 68.4971 195.847 67.799 195.847 67.0374C195.847 66.2124 196.354 65.5775 197.497 65.5775C197.878 65.5775 198.322 65.6728 198.608 65.7997L200.988 60.3099L195.593 47.2992L194.038 46.6327V45.998H201.083V46.6327L198.417 47.2992C199.877 51.0755 200.956 53.9632 202.162 57.1683H202.257C203.558 53.9314 204.827 50.5678 206.097 47.3308L203.304 46.6327V45.998H209.206V46.6327L207.461 47.3308C206.319 50.06 202.892 58.3422 202.162 60.183C201.146 62.7534 199.306 67.3229 199.306 67.3229C199.052 67.894 198.481 68.4971 197.465 68.4971Z" fill="#0A1B29"/>
<path d="M188.147 60.2783C186.021 60.2783 184.688 59.231 184.688 57.3905V56.4067C184.688 53.6142 184.784 49.4572 184.847 47.6799L183.038 47.6483V47.0453C184.847 46.5376 186.148 45.2367 186.878 43.8721H187.417L187.354 46.1568C189.036 46.1568 190.718 46.1252 192.4 46.1252V47.2991C192.4 47.5214 192.304 47.6483 192.114 47.6799H187.354C187.354 47.8387 187.354 48.1242 187.354 48.4415C187.386 49.9015 187.29 52.6939 187.29 54.6931V56.5971C187.29 58.0251 188.02 58.8183 189.639 58.8183C190.972 58.8183 191.892 58.279 192.114 58.1521L192.368 58.6914C191.892 59.1675 190.337 60.2783 188.147 60.2783Z" fill="#0A1B29"/>
<path d="M175.693 60.3424C172.266 60.3424 169.156 57.8038 169.156 53.2023C169.156 48.5694 172.107 45.5547 175.756 45.5547C177.343 45.5547 178.453 45.9989 179.31 46.7289C180.611 47.8394 181.024 49.5213 181.436 50.1879L181.214 50.759L171.789 50.6956C171.726 50.981 171.694 51.5522 171.694 51.9964C171.694 55.265 173.408 58.5335 177.152 58.5335C179.12 58.5335 180.453 57.5816 181.214 56.9469L181.563 57.4865C180.516 58.5654 178.453 60.3424 175.693 60.3424ZM171.916 49.934C173.82 49.8705 175.756 49.8387 177.66 49.7433C178.263 49.7117 178.485 49.6798 178.485 49.204C178.485 47.9982 177.723 46.3797 175.566 46.3797C173.439 46.3797 172.266 48.1886 171.916 49.934Z" fill="#0A1B29"/>
<path d="M166.658 59.9295H158.344V59.2949L160.883 58.6603V47.4265H158.947V46.8235L160.851 45.9984C161.136 41.2068 163.136 36.6055 167.61 36.6055C168.943 36.6055 170.18 37.1132 170.18 37.9066C170.18 38.6363 169.482 39.271 168.848 39.3663C167.864 38.9221 166.912 38.1286 165.706 38.0336C164.246 38.0336 163.485 39.0171 163.485 45.4592V46.0619L167.705 46.0303V47.1092C167.705 47.2996 167.578 47.3947 167.388 47.4265H163.453L163.485 58.6603L166.658 59.2949V59.9295Z" fill="#0A1B29"/>
<path d="M146.779 60.374C145.224 60.374 144.05 59.8028 144.05 58.375C144.05 55.1381 149.508 53.1388 151.666 52.2503L151.73 48.1251C151.73 47.2048 150.841 46.4751 149.54 46.4751C146.494 46.4751 147.858 49.5213 144.907 49.5213C144.431 49.5213 144.145 49.3625 144.145 49.0452C144.145 48.379 145.066 47.3636 146.589 46.5701C147.7 45.9989 149.127 45.5547 150.746 45.5547C152.967 45.5547 154.363 46.2209 154.363 48.1251L154.078 57.3596C154.173 57.9942 154.522 58.502 155.411 58.502C156.49 58.502 157.061 57.5816 157.22 57.3912H157.347V58.1212C156.997 58.8508 155.76 60.2155 154.046 60.2155C152.65 60.2155 151.984 59.549 151.571 58.597H151.317C150.651 59.2635 148.81 60.374 146.779 60.374ZM148.683 58.9462C149.953 58.9462 151.222 58.3116 151.508 57.0104L151.666 52.9168C148.398 54.44 146.874 55.9315 146.874 57.3277C146.874 58.4701 147.636 58.9462 148.683 58.9462Z" fill="#0A1B29"/>
<path d="M134.019 60.31C131.735 60.31 129.576 59.7388 128.371 59.0723L128.149 54.1218L128.91 54.0902C129.037 54.6295 129.164 55.1691 129.323 55.6768C130.053 57.9934 131.385 59.4531 134.146 59.4531C137.034 59.4531 138.747 57.803 138.747 55.2644C138.747 53.0113 137.256 51.7102 135.098 50.6629L134.114 50.187C130.592 48.4735 128.783 47.077 128.783 43.8403C128.783 40.3179 131.735 38.0967 135.892 38.0967C137.954 38.0967 139.573 38.5725 140.747 39.0486L140.778 43.5865H140.08C139.985 43.0788 139.858 42.6026 139.731 42.1584C139.224 40.3495 138.24 38.9852 135.701 38.9852C133.162 38.9852 131.639 40.4448 131.639 42.698C131.639 44.8242 132.591 45.9031 135.669 47.4578L136.621 47.9339C139.414 49.3301 141.667 50.9486 141.667 54.1218C141.667 58.2473 138.208 60.31 134.019 60.31Z" fill="#0A1B29"/>
<path d="M118.506 59.9293H108.732V59.2946L112.096 58.5965V39.8103L108.732 39.1122V38.4775H118.506V39.1122L115.174 39.8103V58.5965L118.506 59.2946V59.9293Z" fill="#0A1B29"/>
<path d="M93.2036 59.9299H86V59.2949L88.5389 58.5334L93.8067 44.3487C94.5048 42.4448 95.3614 40.2232 96.0595 38.2559H96.8848C97.5511 40.1282 98.408 42.286 99.2646 44.5391L104.564 58.5653L106.849 59.2949V59.9299H98.1222V59.2949L101.391 58.5653L98.6299 51.1397H92.4736L89.9985 58.5334L93.2036 59.2949V59.9299ZM92.8228 50.1242H98.2492C97.9637 49.2673 95.7106 43.0794 95.5837 42.5083H95.4883C94.7586 45.0784 93.6797 47.5538 92.8228 50.1242Z" fill="#0A1B29"/>
<path d="M207.696 28.7238L205.79 28.851L205.599 28.6603L205.917 27.8341C206.234 27.0078 207.029 24.8155 207.569 23.163C207.919 22.1464 208.364 20.8118 209.73 16.4268C209.73 16.2361 209.603 16.1407 209.476 16.1407C208.681 16.4268 207.315 17.5706 206.52 18.5238L206.044 17.9836C207.219 16.4584 209.221 14.4248 211.064 14.4248C211.859 14.4248 212.081 14.8062 212.081 15.3145C212.081 16.0773 211.446 17.6976 210.874 19.1593L209.73 22.051H209.92C210.143 21.6377 210.429 21.1294 210.779 20.5577C212.971 16.9032 214.719 14.4883 216.562 14.4883C217.61 14.4883 217.991 15.0922 217.991 15.6959C217.991 16.7763 217.006 17.4434 216.149 17.4753L216.021 17.3799C215.418 16.9032 215.195 16.6809 214.909 16.6809C214.115 16.6809 212.145 19.7314 211.573 20.748C210.429 22.6228 209.92 23.7032 209.476 24.6882C208.681 26.3726 208.014 27.9613 207.696 28.7238Z" fill="#0A1B29"/>
<path d="M195.991 28.9457C193.767 28.9457 192.21 27.6112 192.21 24.8467C192.21 21.0019 195.546 14.583 200.154 14.583C202.473 14.583 203.935 16.1082 203.935 18.7139C203.935 22.368 200.726 28.9457 195.991 28.9457ZM195.864 28.3736C198.501 28.3736 201.838 21.0019 201.838 17.3793C201.838 15.8541 201.107 15.3139 200.217 15.3139C197.453 15.3139 194.275 23.1308 194.275 26.3082C194.275 27.6746 194.911 28.3736 195.864 28.3736Z" fill="#0A1B29"/>
<path d="M179.516 37.1121C178.467 37.1121 177.641 36.6673 177.641 35.9683C177.641 35.3962 178.086 35.0786 178.499 35.0786C178.721 35.0786 178.912 35.3008 179.516 35.841C179.929 36.2224 180.183 36.3812 180.501 36.3812C181.232 36.3812 181.867 35.2374 182.789 32.1234C183.36 30.2168 183.901 28.2467 187.205 16.7122H184.727L184.981 15.8544L187.491 15.7906L188.349 13.1215C189.207 10.4843 190.319 8.51419 191.876 7.30657C192.957 6.48034 194.164 6.00391 195.531 6.00391C197.056 6.00391 198.073 6.57568 198.073 7.05242C198.073 7.59261 197.373 8.19627 196.833 8.19627C196.611 8.19627 196.357 7.94212 196.134 7.78331C195.626 7.40192 194.927 6.95707 194.101 6.95707C193.465 6.95707 192.957 7.37004 192.512 7.974C191.94 8.92716 191.304 10.6431 190.828 12.3272L189.811 15.8225H192.988L192.703 16.7441H189.525L186.919 25.5141C186.03 28.5009 185.267 31.2337 184.377 33.14C183.17 35.6187 181.676 37.1121 179.516 37.1121Z" fill="#0A1B29"/>
</svg>
